<mxfile host="app.diagrams.net" modified="2023-09-16T23:01:55.991Z" agent="Mozilla/5.0 (Macintosh; Intel Mac OS X 10.15; rv:109.0) Gecko/20100101 Firefox/117.0" version="21.7.5" etag="1cqIuI4bZj5GAyr7sKh5" type="github">
  <diagram name="PÃ¡gina-1" id="E-kYwztloucz_evR6QOC">
    <mxGraphModel>
      <root>
        <mxCell id="0" />
        <mxCell id="1" parent="0" />
      </root>
    </mxGraphModel>
  </diagram>
</mxfile>
